<svg xmlns="http://www.w3.org/2000/svg"  viewBox="0 0 256 256" width="512px" height="512px"><rect width="106" height="162.5" x="80.564" y="18.041" fill="#cecece" rx="5" ry="5"/><path fill="#afafaf" d="M99.064,175.541V23.041a5,5,0,0,1,5-5h-18.5a5,5,0,0,0-5,5v152.5a5,5,0,0,0,5,5h18.5A5,5,0,0,1,99.064,175.541Z"/><path fill="#e2e2e2" d="M168.064,175.541V23.041a5,5,0,0,0-5-5h18.5a5,5,0,0,1,5,5v152.5a5,5,0,0,1-5,5h-18.5A5,5,0,0,0,168.064,175.541Z"/><path fill="#707070" d="M80.564,175.541a5,5,0,0,0,5,5h96a5,5,0,0,0,5-5v-28.07h-106Z"/><path fill="#5b5b5b" d="M99.064,175.541v-28.07h-18.5v28.07a5,5,0,0,0,5,5h18.5A5,5,0,0,1,99.064,175.541Z"/><path fill="#9e9e9e" d="M168.064,175.541v-28.07h18.5v28.07a5,5,0,0,1-5,5h-18.5A5,5,0,0,0,168.064,175.541Z"/><circle cx="133.564" cy="164.006" r="7" fill="#cecece"/><rect width="41.25" height="6.25" x="112.939" y="25.041" fill="#3f3679" rx="3.125" ry="3.125"/><rect width="68.574" height="68.574" x="99.277" y="69.161" fill="#707070"/><rect width="68.574" height="22.34" x="99.277" y="69.161" fill="#63bce7"/><rect width="45.234" height="42.497" x="110.947" y="37.834" fill="#cecece"/><circle cx="133.564" cy="49.933" r="6.562" fill="#9e9e9e"/><path fill="#f46275" d="M131.376,56.495h4.377a8.263,8.263,0,0,1,8.263,8.263V74.793a0,0,0,0,1,0,0h-20.9a0,0,0,0,1,0,0V64.758A8.263,8.263,0,0,1,131.376,56.495Z"/><path fill="#f8af23" d="M80.565,68.49v36.174l7.12-8.353a8.3,8.3,0,0,1,11.665-.93h0a8.3,8.3,0,0,1,.93,11.665l-16.2,19s4.834,20.4-7.909,32.058H40.148l3.194-43.827c.383-4.048,2.879-7.471,5.417-10.3Z"/><path fill="#f87023" d="M67.259,103.977,80.565,89.131V68.49L48.759,103.977c-2.538,2.832-5.034,6.256-5.417,10.3l-3.194,43.827h18.5l3.194-43.827C62.225,110.233,64.721,106.809,67.259,103.977Z"/><rect width="63.046" height="26.003" x="29.062" y="158.107" fill="#707070" transform="rotate(-180 60.585 171.108)"/><rect width="18.5" height="26.003" x="29.062" y="158.107" fill="#5b5b5b"/><rect width="55.574" height="42.876" x="32.797" y="184.11" fill="#63bce7" transform="rotate(-180 60.585 205.548)"/><rect width="18.5" height="42.876" x="32.797" y="184.11" fill="#6377e7"/><path fill="#f8af23" d="M162.329,212.631l-17.413-36.685a7.986,7.986,0,0,1,14.43-6.849l3.7,7.8V127.781a7.986,7.986,0,1,1,15.973,0v32.242a7.986,7.986,0,0,1,15.973,0v2.888a7.986,7.986,0,1,1,15.973,0v3.158a7.986,7.986,0,0,1,15.973,0v60.917h-63.89V214.138Z"/><path fill="#f8d323" d="M218.952,158.083a7.986,7.986,0,0,0-7.986,7.986v-3.158a7.984,7.984,0,0,0-15.284-3.236,7.975,7.975,0,0,1,12.756,6.395v60.917h18.5V166.069A7.986,7.986,0,0,0,218.952,158.083Z"/><path fill="#3f3679" d="M27.323,236.459h-18a1.5,1.5,0,0,0,0,3h18a1.5,1.5,0,1,0,0-3Z"/><path fill="#3f3679" d="M246.68,236.459h-18a1.5,1.5,0,0,0,0,3h18a1.5,1.5,0,0,0,0-3Z"/><path fill="#3f3679" d="M218.479,236.459H37.521a1.5,1.5,0,0,0,0,3H218.479a1.5,1.5,0,0,0,0-3Z"/><path fill="#3f3679" d="M248.18,226.986a1.5,1.5,0,0,0-1.5-1.5H228.438V166.069a9.482,9.482,0,0,0-16.525-6.353,9.482,9.482,0,0,0-16.044-3.08,9.508,9.508,0,0,0-7.8-6.035V23.041a6.508,6.508,0,0,0-6.5-6.5h-96a6.508,6.508,0,0,0-6.5,6.5V67.917l-31.423,35.06c-2.466,2.75-5.353,6.5-5.8,11.194l-3.093,42.437H29.062a1.5,1.5,0,0,0-1.5,1.5v26a1.5,1.5,0,0,0,1.5,1.5H31.3v39.876H9.32a1.5,1.5,0,0,0,0,3H246.68A1.5,1.5,0,0,0,248.18,226.986Zm-67.659-78.016h4.544v1.77a9.467,9.467,0,0,0-4.544,2.366ZM82.064,23.041a3.5,3.5,0,0,1,3.5-3.5h96a3.5,3.5,0,0,1,3.5,3.5v122.93h-4.544V127.781a9.447,9.447,0,0,0-11.17-9.328V69.161a1.5,1.5,0,0,0-1.5-1.5h-10.17V37.834a1.5,1.5,0,0,0-1.5-1.5H110.947a1.5,1.5,0,0,0-1.5,1.5V67.661H99.277a1.5,1.5,0,0,0-1.5,1.5V92.674a9.807,9.807,0,0,0-11.234,2.664l-4.479,5.253V23.041Zm61.5,153.548,1.164,2.452H93.607V158.107a1.5,1.5,0,0,0-1.5-1.5H82.064v-3.424a28.751,28.751,0,0,0,2.046-4.212h77.438v21.27l-.848-1.787a9.487,9.487,0,0,0-17.141,8.136Zm17.988,48.9H89.872V185.61h2.235a1.5,1.5,0,0,0,1.5-1.5v-2.069h52.541l14.825,31.233,0,0,.573,1.2ZM85.7,126.46l12.074-14.166v25.44a1.5,1.5,0,0,0,1.5,1.5h62.271v6.736H85.107A44.808,44.808,0,0,0,85.7,126.46Zm75.846,1.321v8.453H100.777v-27.46l.645-.756a9.781,9.781,0,0,0-.645-13.353V93h65.573v26.542A9.487,9.487,0,0,0,161.549,127.781Zm-6.868-48.95H112.447v-39.5h42.233Zm-45.233,0h-4.133a1.5,1.5,0,0,0,0,3h56.5a1.5,1.5,0,0,0,0-3h-4.134v-8.17h8.67V90H100.777V70.661h8.67ZM44.835,114.422c.358-3.786,2.882-7.035,5.041-9.443L79.064,72.411v31.7L65.9,119.553a1.5,1.5,0,1,0,2.283,1.945l13.52-15.862,7.12-8.352a6.775,6.775,0,0,1,10.313,8.789l-16.2,19a1.5,1.5,0,0,0-.318,1.317c.046.193,4.362,19.234-7.043,30.214H41.761ZM30.562,159.607H90.607v10H55.747a1.5,1.5,0,0,0,0,3h34.86v10H30.562ZM34.3,225.486V185.61H86.872v39.876Zm130.251,0V214.138a1.5,1.5,0,0,0-.146-.646L146.271,175.3a6.486,6.486,0,0,1,11.719-5.562l3.7,7.8a1.5,1.5,0,0,0,2.855-.644V127.781a6.486,6.486,0,1,1,12.972,0v32.241a1.5,1.5,0,0,0,3,0,6.486,6.486,0,0,1,12.973,0v2.888a1.5,1.5,0,1,0,3,0,6.486,6.486,0,0,1,12.973,0v3.159a1.5,1.5,0,0,0,3,0,6.486,6.486,0,0,1,12.973,0v59.417Z"/><path fill="#3f3679" d="M133.564,155.506a8.5,8.5,0,1,0,8.5,8.5A8.51,8.51,0,0,0,133.564,155.506Zm0,14a5.5,5.5,0,1,1,5.5-5.5A5.507,5.507,0,0,1,133.564,169.506Z"/><path fill="#3f3679" d="M123.112,76.293h20.9a1.5,1.5,0,0,0,1.5-1.5V64.758a9.771,9.771,0,0,0-6.275-9.107,8.062,8.062,0,1,0-11.353,0,9.771,9.771,0,0,0-6.275,9.107V74.793A1.5,1.5,0,0,0,123.112,76.293Zm10.452-31.422a5.062,5.062,0,1,1-5.062,5.062A5.067,5.067,0,0,1,133.564,44.871Zm-8.952,19.887A6.771,6.771,0,0,1,131.376,58h4.376a6.771,6.771,0,0,1,6.764,6.763v8.535h-17.9Z"/><path fill="#3f3679" d="M40.147,172.608h7.487a1.5,1.5,0,0,0,0-3H40.147a1.5,1.5,0,0,0,0,3Z"/></svg>