<svg xmlns="http://www.w3.org/2000/svg" viewBox="0 0 1000 1000" width="1000" height="1000"><g transform="translate(205.0 286.0) rotate(0.0 313.5 262.0) scale(1.0523347733703916 1.0538933717347407)"><svg width="595.818" height="497.204" viewBox="0 0 595.818 497.204"><path d="M380.401 491.204H215.417a3.902 3.902 0 0 1-3.902-3.902v-50.138h172.788v50.138a3.902 3.902 0 0 1-3.902 3.902z" fill="#fff"/><path d="M380.401 497.203H215.417c-5.46 0-9.902-4.442-9.902-9.902v-56.138h184.788v56.138c0 5.46-4.442 9.902-9.902 9.902zm-162.886-12h160.788v-42.04H217.515z"/><path d="M548.836 437.164H46.982C24.348 437.164 6 418.816 6 396.182v-349.2C6 24.348 24.348 6 46.982 6h501.854c22.634 0 40.982 18.348 40.982 40.982v349.2c0 22.634-18.348 40.982-40.982 40.982z" fill="#fff"/><path d="M548.836 443.163H46.982C21.076 443.163 0 422.087 0 396.182v-349.2C0 21.077 21.076 0 46.982 0h501.854c25.906 0 46.982 21.076 46.982 46.981v349.2c0 25.906-21.076 46.982-46.982 46.982zM46.982 12C27.693 12 12 27.693 12 46.982v349.2c0 19.289 15.693 34.981 34.982 34.981h501.854c19.289 0 34.982-15.692 34.982-34.981v-349.2c0-19.289-15.693-34.981-34.982-34.981H46.982z"/></svg></g><g transform="translate(206.0 295.0) rotate(0.0 311.5 261.0) translate(0.0 0.0) scale(1.0456213138911548 1.0498708779494936)"><svg width="595.818" height="65.722" viewBox="0 0 595.818 65.722"><path d="M380.401 491.204H215.417a3.902 3.902 0 0 1-3.902-3.902v-50.138h172.788v50.138a3.902 3.902 0 0 1-3.902 3.902z"/><path d="M380.401 497.203H215.417c-5.46 0-9.902-4.442-9.902-9.902v-56.138h184.788v56.138c0 5.46-4.442 9.902-9.902 9.902zm-162.886-12h160.788v-42.04H217.515z"/><path d="M548.836 437.164H46.982C24.348 437.164 6 418.816 6 396.182v-349.2C6 24.348 24.348 6 46.982 6h501.854c22.634 0 40.982 18.348 40.982 40.982v349.2c0 22.634-18.348 40.982-40.982 40.982z"/><path d="M548.836 443.163H46.982C21.076 443.163 0 422.087 0 396.182v-349.2C0 21.077 21.076 0 46.982 0h501.854c25.906 0 46.982 21.076 46.982 46.981v349.2c0 25.906-21.076 46.982-46.982 46.982zM46.982 12C27.693 12 12 27.693 12 46.982v349.2c0 19.289 15.693 34.981 34.982 34.981h501.854c19.289 0 34.982-15.692 34.982-34.981v-349.2c0-19.289-15.693-34.981-34.982-34.981H46.982z"/></svg></g><g transform="translate(450.0 690.0) rotate(63.404172121161 71.5 124.5) scale(1.7355422052309 1.7319931833200015)"><svg width="82.395" height="143.765" viewBox="0 0 82.395 143.765"><rect height="146.414" rx="4.272" transform="matrix(.89373184 .44860161 -.44860161 .89373184 36.625 -10.842)" width="8.544" x="36.925" y="-1.325"/><path d="M10.256 143.763c-1.547 0-3.117-.351-4.592-1.091-5.062-2.542-7.113-8.727-4.572-13.789L62.942 5.665A10.208 10.208 0 0 1 68.889.523c2.605-.863 5.39-.66 7.842.569 5.062 2.541 7.113 8.727 4.572 13.788L19.453 138.1c-1.801 3.588-5.433 5.663-9.197 5.663z"/></svg></g><g transform="translate(241.0 317.0) rotate(0.0 11.5 11.5) scale(0.2876905950192002 0.2876905950192002)"><svg width="79.947" height="79.947" viewBox="0 0 79.947 79.947"><g fill="#FFF"><circle cx="39.973" cy="39.973" r="33.973"/><path d="M39.985 79.947h-.424a39.973 39.973 0 1 1 40.384-39.561 39.974 39.974 0 0 1-39.96 39.561zM39.965 12a27.929 27.929 0 1 0 .3 0z"/></g></svg></g><g transform="translate(278.0 317.0) rotate(0.0 11.5 11.5) scale(0.2876905950192002 0.2876905950192002)"><svg width="79.947" height="79.947" viewBox="0 0 79.947 79.947"><g fill="#FFF"><circle cx="39.973" cy="39.973" r="33.973"/><path d="M39.985 79.947h-.424a39.973 39.973 0 1 1 40.384-39.561 39.974 39.974 0 0 1-39.96 39.561zM39.965 12a27.929 27.929 0 1 0 .3 0z"/></g></svg></g><g transform="translate(314.0 317.0) rotate(0.0 11.5 11.5) scale(0.2876905950192002 0.2876905950192002)"><svg width="79.947" height="79.947" viewBox="0 0 79.947 79.947"><g fill="#FFF"><circle cx="39.973" cy="39.973" r="33.973"/><path d="M39.985 79.947h-.424a39.973 39.973 0 1 1 40.384-39.561 39.974 39.974 0 0 1-39.96 39.561zM39.965 12a27.929 27.929 0 1 0 .3 0z"/></g></svg></g><g transform="translate(275.0 476.0) rotate(0.0 208.5 299.0) translate(64.0 44.0) scale(0.9161351837652937 0.9142039469761711)"><svg width="294.716" height="145.482" viewBox="69.859 48.129 294.716 145.482"><path d="M60.531 648.121H6V6h443.173v642.121h-250.26" fill="#fff"/><path d="M449.172 654.121H198.913a6 6 0 0 1 0-12h244.259V12H12v630.121h48.53a6 6 0 0 1 0 12H6a6 6 0 0 1-6-6V6a6 6 0 0 1 6-6h443.172a6 6 0 0 1 6 6v642.121a6 6 0 0 1-6 6z"/><path d="M352.434 133.923H83.828a6 6 0 0 1 0-12h268.605a6 6 0 0 1 .001 12zM215.472 329.03H83.828a6 6 0 0 1 0-12h131.644a6 6 0 0 1 0 12zm64.72-249.557H83.828a6 6 0 0 1 0-12h196.363a6 6 0 0 1 .001 12zm33.806 108.901H83.828a6 6 0 0 1 0-12h230.17a6 6 0 0 1 0 12zm-78.454 188.429H83.828a6 6 0 0 1 0-12h151.716a6 6 0 0 1 0 12z"/><path d="M97.895 471.035c-1.893 0-3.787-.358-5.579-1.156-4.593-2.046-11.58-8.307-6.773-27.255.61-2.41 1.592-5.034 2.541-7.572 1.045-2.795 2.87-7.675 2.949-10.042-2.79 2.058-8.355 10.483-10.698 19.987-1.361 5.524-6.125 9.458-12.135 10.021-5.738.537-11.02-2.198-13.126-6.809a6 6 0 0 1 10.774-5.275c.369.157 1.223.26 2.022-.041.688-.26.771-.59.814-.768 1.23-4.995 3.655-10.963 6.485-15.964 3.86-6.824 8.02-11.126 12.361-12.788 3.596-1.377 7.306-.958 10.443 1.18 8.438 5.748 4.341 16.704 1.35 24.703-.875 2.338-1.7 4.546-2.15 6.319-2.522 9.946-.622 13.055.024 13.343 1.161.515 3.865-.559 4.753-1.884 2.366-3.535 5.537-7.671 8.895-12.049 1.714-2.235 3.873-5.051 5.914-7.831.439-5.506 1.973-14.389 7.231-17.128 2.66-1.386 5.754-1.102 8.274.76 1.615 1.194 2.663 2.978 2.951 5.024.52 3.685-1.342 7.826-6.028 14.59a60.682 60.682 0 0 0 12.598-4.916c.461-.242.923-.491 1.386-.74 3.614-1.948 8.085-4.375 13.411-4.258 6.144.131 8.122 4.981 8.967 7.052l.06.146c1.316-1.22 2.938-2.919 4.167-4.205 5.299-5.549 11.305-11.839 18.498-13.459 7.857-1.769 16.366-.467 23.349 3.573a6 6 0 1 1-6.01 10.386c-4.398-2.545-9.756-3.366-14.702-2.253-3.655.823-8.742 6.15-12.455 10.039-5.542 5.804-11.27 11.808-17.66 8.171-3.717-2.116-5.226-5.159-6.104-7.25-1.77.435-3.755 1.505-5.829 2.622-.5.269-.998.538-1.495.799a72.717 72.717 0 0 1-15.763 6.064c-4.241 1.086-7.725.75-10.389-.992l-.849 1.108c-3.236 4.22-6.293 8.206-8.443 11.42-2.778 4.152-8.389 7.328-14.029 7.328zm-31.908-27.817.001.002-.001-.002z" fill="#17adff"/></svg></g><g transform="translate(642.0 429.0) rotate(0.0 72.0 100.0) scale(0.9876881923248397 0.9986617931971159)"><svg width="145.795" height="200.268" viewBox="0 0 145.795 200.268"><path d="M139.795 54.547v139.721H6V6h85.248z" fill="#fff"/><path d="M139.795 200.268H6a6 6 0 0 1-6-6V6a6 6 0 0 1 6-6h85.248c1.591 0 3.117.632 4.242 1.758l48.547 48.547a5.994 5.994 0 0 1 1.758 4.242v139.721a6 6 0 0 1-6 6zM12 188.268h121.795V57.033L88.763 12H12z"/><path d="M91.248 6v48.547h48.547z" fill="#fff"/><path d="M139.795 60.547H91.248a6 6 0 0 1-6-6V6A6 6 0 0 1 95.49 1.758l48.547 48.547a5.998 5.998 0 0 1-4.242 10.242zm-42.547-12h28.062L97.248 20.486z"/></svg></g><g transform="translate(686.0 264.0) rotate(96.03304849727947 132.0 102.5) scale(0.9257798116879701 0.9305112364905656)"><svg width="285.165" height="220.309" viewBox="0 0 285.165 220.309"><path d="M25.206 214.31 6 32.884 259.96 6l19.206 181.424z" fill="#fff"/><path d="M25.206 220.309a6 6 0 0 1-5.967-5.368L.033 33.516a6 6 0 0 1 5.335-6.6L259.327.033a6 6 0 0 1 6.6 5.335l19.207 181.425a6 6 0 0 1-5.335 6.6L25.838 220.276a5.83 5.83 0 0 1-.632.033zM12.6 38.22l17.941 169.491 242.026-25.621L254.624 12.6z"/><path d="M18.793 159.8a6 6 0 0 1-.625-11.968l15.1-1.6-5.129-48.467-15.1 1.6a6 6 0 1 1-1.264-11.933L32.842 85.2a6 6 0 0 1 6.6 5.335l6.394 60.4a6 6 0 0 1-5.335 6.6l-21.068 2.231a6.278 6.278 0 0 1-.64.034zm48.314.385a6 6 0 0 1-5.96-5.369L53.6 83.533a6 6 0 1 1 11.934-1.264l7.546 71.284a6.006 6.006 0 0 1-5.974 6.632zm43.304 16.523a6 6 0 0 1-5.959-5.369L92.437 57.844a6 6 0 1 1 11.934-1.264l12.014 113.495a6 6 0 0 1-5.335 6.6 6.262 6.262 0 0 1-.639.033zm33.369-3.532a6 6 0 0 1-5.959-5.37L125.806 54.311a6 6 0 0 1 11.934-1.263l12.015 113.5a6.015 6.015 0 0 1-5.975 6.633zm33.42-3.067a6 6 0 0 1-5.96-5.369L159.225 51.245a6 6 0 1 1 11.933-1.264l12.015 113.5a6.006 6.006 0 0 1-5.974 6.633zm59.005-6.247a6 6 0 0 1-5.959-5.368l-3.45-32.588a6 6 0 0 1 11.934-1.264l3.449 32.588a6 6 0 0 1-5.335 6.6 6.259 6.259 0 0 1-.639.032z"/><path d="M223.394 79.394a6 6 0 0 1-5.072-9.2l3.62-5.751-19.2-13.774a6 6 0 0 1 6.994-9.75l23.792 17.066a6 6 0 0 1 1.58 8.071l-6.631 10.534a6 6 0 0 1-5.083 2.804z" fill="#ff002a"/></svg></g><g transform="translate(807.0 223.0) rotate(89.99999999999997 10.0 41.0) scale(0.5555555555555556 0.5642836006798929)"><svg width="36" height="145.317" viewBox="0 0 36 145.317"><g fill="#fff"><path d="M6 6h24v133.317H6z"/><path d="M30 145.317H6a6 6 0 0 1-6-6V6a6 6 0 0 1 6-6h24a6 6 0 0 1 6 6v133.317a6 6 0 0 1-6 6zm-18-12h12V12H12z"/></g></svg></g><g transform="translate(62.0 573.0) rotate(0.0 148.5 127.5) scale(0.9618249413837325 0.962075366343208)"><svg width="308.788" height="265.052" viewBox="0 0 308.788 265.052"><path d="M23.053 259.052C23.053 255.641 6 108.663 6 108.663L45.54 6.22l203.365 37.082-7.881 109.565 34.509 59.329-12.409-.259 39.663 47.116H23.053z" fill="#fff"/><path d="M302.788 265.052H23.053a6 6 0 0 1-5.998-5.857c-.277-4.731-10.316-92.104-17.014-149.84a5.99 5.99 0 0 1 .363-2.852L39.942 4.06A6.002 6.002 0 0 1 46.616.318l203.366 37.081a6 6 0 0 1 4.908 6.333l-7.748 107.717 33.578 57.729a6.001 6.001 0 0 1-4.515 8.98l31.173 37.03a6.002 6.002 0 0 1-4.59 9.865zm-274.297-12h261.403l-31.359-37.251a6.002 6.002 0 0 1-.823-6.452 5.984 5.984 0 0 1 5.538-3.411l1.724.036-29.135-50.09a5.999 5.999 0 0 1-.798-3.447l7.495-104.196L49.349 13.014l-37.218 96.428c3.668 31.625 13.855 119.661 16.36 143.61z"/><path d="M10 47.796s86.843-25.1 128.167-25.415c-8.732-1.132-63.204-12.227-88.628-16.16C25.302 2.47 10 47.796 10 47.796z" fill="#fff"/><path d="M10 53.795a6 6 0 0 1-5.685-7.919c.166-.491 4.137-12.14 11.291-23.477C28.675 1.692 41.772-1.053 50.457.292c14.526 2.247 38.554 6.832 57.862 10.517 14.497 2.767 27.018 5.156 30.619 5.623a6 6 0 0 1-.725 11.95c-40.035.305-125.687 24.93-126.547 25.179a5.985 5.985 0 0 1-1.665.236zm36.789-41.786c-10.902 0-20.676 14.794-26.475 26.687 16.747-4.545 48.206-12.654 77.129-17.745-17.333-3.298-36.583-6.907-48.821-8.8a11.982 11.982 0 0 0-1.834-.141zm216.336 205.928H49.754a6 6 0 0 1 0-12h213.37a6 6 0 0 1 0 12zm-22.096-59.07c-.078 0-.155-.001-.233-.004l-173.057-6.614a6 6 0 0 1-5.766-6.225c.126-3.312 2.905-5.901 6.225-5.767l173.057 6.614a6 6 0 0 1-.226 11.996zm-48.749-32.141a6.04 6.04 0 0 1-.402-.013L9.604 114.65a6.001 6.001 0 0 1-5.591-6.383 6.002 6.002 0 0 1 6.383-5.591l182.274 12.063a6 6 0 0 1-.39 11.987zm53.676-36.324c-.211 0-.424-.011-.639-.034L87.431 73.651a6 6 0 0 1 1.263-11.934L246.58 78.434a6 6 0 0 1-.624 11.968z"/><path d="M120.442 198.737a5.995 5.995 0 0 1-3.978-1.509l-52.475-46.484a6 6 0 0 1 4.244-10.485l74.643 3.307a5.998 5.998 0 0 1 5.072 8.734l-22.168 43.178a6.005 6.005 0 0 1-5.337 3.259zm-35.813-45.74 34.006 30.124 14.366-27.98-48.372-2.143z"/></svg></g><g transform="translate(312.0 111.0) rotate(0.0 158.0 192.0) scale(1.0324671717914287 1.0306456028471584)"><svg width="306.063" height="372.582" viewBox="0 0 306.063 372.582"><path d="M153.032 366.582C118.169 366.582 6 311.502 6 213.663V76c38.66 0 70-31.34 70-70h154.063c0 38.66 31.34 70 70 70v137.663c0 97.839-112.168 152.919-147.031 152.919z" fill="#fff"/><path d="M153.031 372.582c-18.974 0-57.086-14.401-90.345-41.09C34.089 308.543 0 269.473 0 213.663V76a6 6 0 0 1 6-6c35.29 0 64-28.71 64-64a6 6 0 0 1 6-6h154.062a6 6 0 0 1 6 6c0 35.29 28.71 64 64 64a6 6 0 0 1 6 6v137.663c0 55.81-34.089 94.88-62.687 117.828-33.258 26.689-71.37 41.091-90.344 41.091zM12 81.765v131.898c0 51.052 31.647 87.164 58.197 108.469 33.049 26.52 68.334 38.449 82.834 38.449s49.785-11.929 82.834-38.449c26.55-21.305 58.197-57.417 58.197-108.469V81.765c-37.136-2.912-66.854-32.63-69.766-69.765H81.766C78.854 49.135 49.136 78.853 12 81.765z"/></svg></g><g transform="translate(404.0 199.0) rotate(0.0 67.0 93.5) scale(0.8618527260916264 0.8595488058247072)"><svg width="155.479" height="217.556" viewBox="0 0 155.479 217.556"><g fill="#17adff"><path d="M77.739 3.5c-29.701 0-53.865 24.164-53.865 53.865V99.6h18.832V57.365c0-19.318 15.716-35.034 35.034-35.034s35.034 15.716 35.034 35.034V99.6h18.832V57.365C131.605 27.664 107.441 3.5 77.739 3.5z"/><path d="M131.605 103.1h-18.831a3.5 3.5 0 0 1-3.5-3.5V57.365c0-17.388-14.146-31.534-31.534-31.534S46.206 39.977 46.206 57.365V99.6a3.5 3.5 0 0 1-3.5 3.5H23.874a3.5 3.5 0 0 1-3.5-3.5V57.365C20.374 25.734 46.109 0 77.74 0s57.365 25.734 57.365 57.365V99.6a3.5 3.5 0 0 1-3.5 3.5zm-15.331-7h11.831V57.365C128.105 29.594 105.511 7 77.74 7S27.374 29.594 27.374 57.365V96.1h11.831V57.365c0-21.248 17.286-38.534 38.534-38.534s38.534 17.286 38.534 38.534V96.1z"/><path d="M151.871 148.624c-2.335-37.663-7.219-65.432-7.219-65.432H99.15c0 7.878-9.586 14.264-21.41 14.264S56.33 91.07 56.33 83.192H10.827s-4.884 27.77-7.219 65.432c-2.329 37.577 33.19 65.432 74.131 65.432s76.461-27.855 74.132-65.432z"/><path d="M77.74 217.556c-23.714 0-46.59-9.276-61.193-24.814C4.775 180.219-.907 164.888.116 148.407c2.319-37.426 7.216-65.543 7.265-65.822a3.501 3.501 0 0 1 3.447-2.894H56.33a3.5 3.5 0 0 1 3.5 3.5c0 5.835 8.202 10.764 17.91 10.764s17.91-4.929 17.91-10.764a3.5 3.5 0 0 1 3.5-3.5h45.502a3.5 3.5 0 0 1 3.447 2.894c.049.28 4.944 28.396 7.265 65.822 1.022 16.481-4.659 31.812-16.431 44.335-14.603 15.538-37.479 24.814-61.193 24.814zM13.797 86.691c-1.282 8.038-4.829 32.029-6.695 62.149-.899 14.504 4.13 28.028 14.545 39.108 13.306 14.156 34.274 22.608 56.093 22.608s42.787-8.452 56.093-22.608c10.415-11.08 15.444-24.604 14.545-39.108-1.867-30.12-5.414-54.112-6.695-62.149h-39.496c-2.22 8.23-12.163 14.264-24.446 14.264s-22.227-6.034-24.446-14.264z"/></g><circle cx="77.74" cy="135.706" r="8.07"/><path d="M77.74 147.276c-6.38 0-11.57-5.19-11.57-11.57s5.19-11.57 11.57-11.57 11.57 5.19 11.57 11.57-5.19 11.57-11.57 11.57zm0-16.141c-2.521 0-4.57 2.05-4.57 4.57s2.05 4.57 4.57 4.57 4.57-2.05 4.57-4.57-2.05-4.57-4.57-4.57z"/><path d="m77.74 130.038-8.071 37.581H85.81z"/><path d="M85.81 171.119H69.669a3.502 3.502 0 0 1-3.422-4.235l8.07-37.581a3.5 3.5 0 0 1 6.844 0l8.07 37.581a3.498 3.498 0 0 1-3.421 4.235zm-11.81-7h7.479l-3.739-17.411z"/></svg></g><g transform="translate(538.0 679.0) rotate(0.0 201.0 77.0) scale(1.0011007127239402 1.0017758754155093)"><svg width="401.558" height="153.727" viewBox="0 0 401.558 153.727"><path d="M360.159 147.726H41.399C21.848 147.726 6 131.878 6 112.328V41.399C6 21.849 21.848 6 41.399 6h318.76c19.55 0 35.399 15.849 35.399 35.399v70.929c0 19.55-15.849 35.398-35.399 35.398z" fill="#fff"/><path d="M360.159 153.727H41.399C18.571 153.727 0 135.155 0 112.327V41.398C0 18.571 18.571 0 41.399 0h318.76c22.827 0 41.398 18.571 41.398 41.398v70.929c.001 22.828-18.571 41.4-41.398 41.4zM41.399 12C25.188 12 12 25.188 12 41.398v70.929c0 16.211 13.188 29.399 29.399 29.399h318.76c16.21 0 29.398-13.188 29.398-29.399V41.398c0-16.21-13.188-29.398-29.398-29.398z"/></svg></g><g transform="translate(587.0 733.0) rotate(0.0 111.0 25.0) scale(0.8666289305720921 0.8776857182979918)"><svg width="256.165" height="56.968" viewBox="0 0 256.165 56.968"><path d="m253.164 34.53-10.471-6.046 10.471-6.046a6 6 0 1 0-6-10.392l-10.472 6.046V6a6 6 0 0 0-12 0v12.092l-10.472-6.046a6 6 0 0 0-6 10.392l10.471 6.046-10.471 6.046a6 6 0 1 0 6 10.392l10.472-6.046v12.092a6 6 0 0 0 12 0V38.876l10.472 6.046a5.997 5.997 0 0 0 8.196-2.196 6 6 0 0 0-2.196-8.196zM152.751 14.242a6 6 0 0 0-8.196-2.196l-10.472 6.046V6a6 6 0 0 0-12 0v12.092l-10.472-6.046a6 6 0 0 0-6 10.392l10.471 6.046-10.471 6.046a6 6 0 1 0 6 10.392l10.472-6.046v12.092a6 6 0 0 0 12 0V38.876l10.472 6.046a5.997 5.997 0 0 0 8.196-2.196 6 6 0 0 0-2.196-8.196l-10.471-6.046 10.471-6.046a6 6 0 0 0 2.196-8.196zm-102.609 0a6 6 0 0 0-8.196-2.196l-10.472 6.046V6a6 6 0 0 0-12 0v12.092L9.001 12.046a6 6 0 0 0-6 10.392l10.472 6.046L3.001 34.53a6 6 0 1 0 6 10.392l10.473-6.046v12.092a6 6 0 0 0 12 0V38.877l10.472 6.046a5.997 5.997 0 0 0 8.196-2.196 6 6 0 0 0-2.196-8.196l-10.472-6.046 10.472-6.046a6.002 6.002 0 0 0 2.196-8.197z" fill="#FF002A"/></svg></g><g transform="translate(675.0 733.0) rotate(0.0 111.0 25.0) scale(0.8666289305720921 0.8776857182979918)"><svg width="256.165" height="56.968" viewBox="0 0 256.165 56.968"><path d="m253.164 34.53-10.471-6.046 10.471-6.046a6 6 0 1 0-6-10.392l-10.472 6.046V6a6 6 0 0 0-12 0v12.092l-10.472-6.046a6 6 0 0 0-6 10.392l10.471 6.046-10.471 6.046a6 6 0 1 0 6 10.392l10.472-6.046v12.092a6 6 0 0 0 12 0V38.876l10.472 6.046a5.997 5.997 0 0 0 8.196-2.196 6 6 0 0 0-2.196-8.196zM152.751 14.242a6 6 0 0 0-8.196-2.196l-10.472 6.046V6a6 6 0 0 0-12 0v12.092l-10.472-6.046a6 6 0 0 0-6 10.392l10.471 6.046-10.471 6.046a6 6 0 1 0 6 10.392l10.472-6.046v12.092a6 6 0 0 0 12 0V38.876l10.472 6.046a5.997 5.997 0 0 0 8.196-2.196 6 6 0 0 0-2.196-8.196l-10.471-6.046 10.471-6.046a6 6 0 0 0 2.196-8.196zm-102.609 0a6 6 0 0 0-8.196-2.196l-10.472 6.046V6a6 6 0 0 0-12 0v12.092L9.001 12.046a6 6 0 0 0-6 10.392l10.472 6.046L3.001 34.53a6 6 0 1 0 6 10.392l10.473-6.046v12.092a6 6 0 0 0 12 0V38.877l10.472 6.046a5.997 5.997 0 0 0 8.196-2.196 6 6 0 0 0-2.196-8.196l-10.472-6.046 10.472-6.046a6.002 6.002 0 0 0 2.196-8.197z" fill="#FF002A"/></svg></g></svg>